<svg width="20" height="20" viewBox="0 0 20 20" fill="none" xmlns="http://www.w3.org/2000/svg">
<g id="Arrow - Left Square">
<path id="Fill 1" fill-rule="evenodd" clip-rule="evenodd" d="M14.084 1.5C16.767 1.5 18.5 3.135 18.5 5.665V14.334C18.5 16.864 16.767 18.5 14.084 18.5H5.916C3.233 18.5 1.5 16.864 1.5 14.334V5.665C1.5 3.135 3.233 1.5 5.916 1.5H14.084ZM5.916 20H14.084C17.622 20 20 17.723 20 14.334V5.665C20 2.276 17.622 0 14.084 0H5.916C2.378 0 0 2.276 0 5.665V14.334C0 17.723 2.378 20 5.916 20Z" fill="black"/>
<path id="Fill 3" fill-rule="evenodd" clip-rule="evenodd" d="M5.91418 10.75H14.0862C14.5002 10.75 14.8362 10.414 14.8362 10C14.8362 9.586 14.5002 9.25 14.0862 9.25H5.91418C5.50018 9.25 5.16418 9.586 5.16418 10C5.16418 10.414 5.50018 10.75 5.91418 10.75Z" fill="black"/>
<path id="Fill 5" fill-rule="evenodd" clip-rule="evenodd" d="M9.67763 14.4982C9.86963 14.4982 10.0626 14.4252 10.2086 14.2772C10.5006 13.9832 10.4996 13.5092 10.2066 13.2172L6.97663 10.0002L10.2066 6.78319C10.4996 6.49119 10.5006 6.01719 10.2086 5.72319C9.91663 5.42919 9.44263 5.42919 9.14863 5.72119L5.38463 9.46919C5.24263 9.60919 5.16363 9.80119 5.16363 10.0002C5.16363 10.1992 5.24263 10.3912 5.38463 10.5312L9.14863 14.2792C9.29463 14.4252 9.48663 14.4982 9.67763 14.4982Z" fill="black"/>
</g>
</svg>
